# xmcd
#
# Track frame offsets:
#	150
#	17500
#	38822
#	48137
#	60792
#	79065
#	93017
#	104327
#	129550
#	145590
#
# Disc length: 2158 seconds
#
# Revision: 1
# Processed by: cddbd v1.5.2PL0 Copyright (c) Steve Scherf et al.
# Submitted via: EasyCDDAExtractor 8.2.3.1
#
DISCID=6a086c0a
DTITLE=David Allan Coe - The Ghost Of Hank Williams
DYEAR=1997
DGENRE=Country
TTITLE0=Lost Highway
TTITLE1=Cold,Cold Heart
TTITLE2=Mansion On The Hill
TTITLE3=My Son Calls Another Man Daddy
TTITLE4=Heavenly Father (Please Help Me Understand)
TTITLE5=The Ghost Of Hank Williams
TTITLE6=Take These Chains From My Heart
TTITLE7=I Dreamed About Mama Last Night
TTITLE8=Be Careful Of Stones That You Throw
TTITLE9=No One Will Ever Know
EXTD=
EXTT0=
EXTT1=
EXTT2=
EXTT3=
EXTT4=
EXTT5=
EXTT6=
EXTT7=
EXTT8=
EXTT9=
PLAYORDER=
